{"accessors":[{"bufferView":0,"componentType":5123,"count":804,"max":[493],"min":[0],"type":"SCALAR","byteOffset":0},{"bufferView":1,"componentType":5126,"count":494,"max":[1.3394486904144287,1.9410284757614136,1.0000005960464478],"min":[-1.0000003576278687,-3,-1.0000003576278687],"type":"VEC3","byteOffset":0},{"bufferView":2,"componentType":5126,"count":494,"max":[1,1,1],"min":[-1,-1,-1],"type":"VEC3","byteOffset":0}],"asset":{"generator":"Khronos Blender glTF 2.0 exporter","version":"2.0"},"bufferViews":[{"buffer":0,"byteLength":1608,"byteOffset":0,"target":34963},{"buffer":0,"byteLength":5928,"byteOffset":1608,"target":34962},{"buffer":0,"byteLength":5928,"byteOffset":7536,"target":34962}],"buffers":[{"byteLength":13464,"uri":"data:application/octet-stream;base64,"}],"materials":[{"name":"Material","pbrMetallicRoughness":{"baseColorFactor":[0.6400000190734865,0.6400000190734865,0.6400000190734865,1],"metallicFactor":0,"roughnessFactor":1},"emissiveFactor":[0,0,0],"alphaMode":"OPAQUE","doubleSided":false}],"meshes":[{"name":"Cube","primitives":[{"attributes":{"NORMAL":2,"POSITION":1},"indices":0,"material":0,"mode":4}]}],"nodes":[{"name":"Camera","rotation":[0.483536034822464,0.33687159419059753,-0.20870360732078552,0.7804827094078064],"translation":[7.481131553649902,5.34366512298584,6.5076398849487305],"scale":[1,1,1]},{"mesh":0,"name":"Cube","scale":[1.4999992847442627,0.75,0.9999995231628418],"translation":[0,0,0],"rotation":[0,0,0,1]},{"name":"Lamp","rotation":[0.16907575726509094,0.7558802962303162,-0.27217137813568115,0.570947527885437],"scale":[1,1,0.9999999403953552],"translation":[4.076245307922363,5.903861999511719,-1.0054539442062378]}],"scene":0,"scenes":[{"name":"Scene","nodes":[1,2,0]}]}
